<svg width="27" height="21" viewBox="0 0 27 21" fill="none" xmlns="http://www.w3.org/2000/svg">
<path d="M6.85938 4.13281C8.61719 2.80469 10.8047 1.75 13.5 1.75C16.625 1.75 19.1641 3.19531 21 4.91406C22.8359 6.59375 24.0469 8.625 24.6328 10.0312C24.75 10.3438 24.75 10.6953 24.6328 11.0078C24.125 12.2578 23.0703 14.0547 21.5078 15.6172L25.6094 18.8594C26.0391 19.1719 26.1172 19.7578 25.7656 20.1484C25.4531 20.5781 24.8672 20.6562 24.4766 20.3047L1.35156 2.17969C0.921875 1.86719 0.84375 1.28125 1.19531 0.890625C1.50781 0.460938 2.09375 0.382812 2.48438 0.734375L6.85938 4.13281ZM8.38281 5.34375L10.1797 6.75C11.0781 5.96875 12.2109 5.5 13.5 5.5C16.2344 5.5 18.5 7.76562 18.5 10.5C18.5 11.3594 18.2656 12.1406 17.9141 12.8047L20.0234 14.4453C21.3516 13.1172 22.2891 11.5938 22.7969 10.5C22.25 9.32812 21.2344 7.6875 19.7109 6.28125C18.1094 4.79688 16.0391 3.625 13.5 3.625C11.5078 3.625 9.78906 4.32812 8.38281 5.34375ZM16.3906 11.6328C16.5469 11.2812 16.625 10.8906 16.625 10.5C16.625 8.78125 15.2188 7.375 13.5 7.375C13.4609 7.375 13.4219 7.375 13.3828 7.375C13.4609 7.60938 13.5 7.80469 13.5 8C13.5 8.42969 13.3828 8.78125 13.2266 9.13281L16.3906 11.6328ZM16.7812 16.7109L18.4219 18C16.9766 18.7812 15.3359 19.25 13.5 19.25C10.3359 19.25 7.79688 17.8438 5.96094 16.125C4.125 14.4062 2.91406 12.375 2.32812 11.0078C2.21094 10.6953 2.21094 10.3438 2.32812 10.0312C2.71875 9.13281 3.34375 8 4.24219 6.82812L5.6875 8C4.98438 8.89844 4.47656 9.79688 4.16406 10.5C4.71094 11.6719 5.72656 13.3516 7.25 14.7578C8.85156 16.2422 10.9219 17.375 13.5 17.375C14.6719 17.375 15.7656 17.1406 16.7812 16.7109ZM8.5 10.5C8.5 10.4219 8.5 10.3047 8.5 10.1875L10.6875 11.9062C11.0781 12.7266 11.8594 13.3516 12.7969 13.5469L14.9844 15.3047C14.5156 15.4219 14.0078 15.5 13.4609 15.5C10.7266 15.5 8.46094 13.2734 8.46094 10.5H8.5Z" fill="black"/>
</svg>
