<svg width="50" height="50" viewBox="0 0 50 50" fill="none" xmlns="http://www.w3.org/2000/svg">
<circle cx="25" cy="25" r="24.5" fill="white" stroke="black"/>
<path d="M34.6875 25.5C34.6875 30.3438 31.1328 34.3672 26.4844 35.0703V28.3125H28.75L29.1797 25.5H26.4844V23.7031C26.4844 22.9219 26.875 22.1797 28.0859 22.1797H29.2969V19.7969C29.2969 19.7969 28.2031 19.6016 27.1094 19.6016C24.9219 19.6016 23.4766 20.9688 23.4766 23.3906V25.5H21.0156V28.3125H23.4766V35.0703C18.8281 34.3672 15.3125 30.3438 15.3125 25.5C15.3125 20.1484 19.6484 15.8125 25 15.8125C30.3516 15.8125 34.6875 20.1484 34.6875 25.5Z" fill="black"/>
</svg>
